REM DIRINDEX 1\2\3,1\2\4,1\2\5,1\2\6
REM DIRNAME cjc157,folder01,folder02,folder03,folder04,folder05
TITLE ""
FILE "158 158.mp3" MP3
  TRACK 01 AUDIO
    TITLE "0:"
    INDEX 01 00:00:00
  TRACK 02 AUDIO
    TITLE "3:cjc157_5793"
    INDEX 01 00:00:11
  TRACK 03 AUDIO
    TITLE "0:"
    INDEX 01 00:01:58
  TRACK 04 AUDIO
    TITLE "4:cjc157_5794"
    INDEX 01 00:02:30
  TRACK 05 AUDIO
    TITLE "0:"
    INDEX 01 00:04:03
  TRACK 06 AUDIO
    TITLE "5:cjc157_5795"
    INDEX 01 00:04:50
  TRACK 07 AUDIO
    TITLE "0:"
    INDEX 01 00:09:12
  TRACK 08 AUDIO
    TITLE "3:cjc157_5796"
    INDEX 01 00:09:57
  TRACK 09 AUDIO
    TITLE "0:"
    INDEX 01 00:10:59
  TRACK 10 AUDIO
    TITLE "4:cjc157_5797"
    INDEX 01 00:11:33
  TRACK 11 AUDIO
    TITLE "0:"
    INDEX 01 00:12:50
  TRACK 12 AUDIO
    TITLE "5:cjc157_5798"
    INDEX 01 00:13:22
  TRACK 13 AUDIO
    TITLE "0:"
    INDEX 01 00:15:60
  TRACK 14 AUDIO
    TITLE "5:cjc157_5799"
    INDEX 01 00:16:30
  TRACK 15 AUDIO
    TITLE "0:"
    INDEX 01 00:19:09
  TRACK 16 AUDIO
    TITLE "3:cjc157_5800"
    INDEX 01 00:19:52
  TRACK 17 AUDIO
    TITLE "0:"
    INDEX 01 00:21:43
  TRACK 18 AUDIO
    TITLE "4:cjc157_5801"
    INDEX 01 00:22:11
  TRACK 19 AUDIO
    TITLE "0:"
    INDEX 01 00:23:55
  TRACK 20 AUDIO
    TITLE "5:cjc157_5802"
    INDEX 01 00:24:24
  TRACK 21 AUDIO
    TITLE "0:"
    INDEX 01 00:27:51
  TRACK 22 AUDIO
    TITLE "3:cjc157_5803"
    INDEX 01 00:28:25
  TRACK 23 AUDIO
    TITLE "0:"
    INDEX 01 00:29:64
  TRACK 24 AUDIO
    TITLE "4:cjc157_5804"
    INDEX 01 00:30:36
  TRACK 25 AUDIO
    TITLE "0:"
    INDEX 01 00:32:13
  TRACK 26 AUDIO
    TITLE "5:cjc157_5805"
    INDEX 01 00:32:58
  TRACK 27 AUDIO
    TITLE "0:"
    INDEX 01 00:36:07
  TRACK 28 AUDIO
    TITLE "5:cjc157_5806"
    INDEX 01 00:36:54
  TRACK 29 AUDIO
    TITLE "0:"
    INDEX 01 00:40:58
  TRACK 30 AUDIO
    TITLE "3:cjc157_5807"
    INDEX 01 00:41:32
  TRACK 31 AUDIO
    TITLE "0:"
    INDEX 01 00:42:57
  TRACK 32 AUDIO
    TITLE "4:cjc157_5808"
    INDEX 01 00:43:29
  TRACK 33 AUDIO
    TITLE "0:"
    INDEX 01 00:44:61
  TRACK 34 AUDIO
    TITLE "5:cjc157_5809"
    INDEX 01 00:45:28
  TRACK 35 AUDIO
    TITLE "0:"
    INDEX 01 00:48:59
  TRACK 36 AUDIO
    TITLE "5:cjc157_5810"
    INDEX 01 00:49:31
  TRACK 37 AUDIO
    TITLE "0:"
    INDEX 01 00:51:38
  TRACK 38 AUDIO
    TITLE "3:cjc157_5811"
    INDEX 01 00:52:08
  TRACK 39 AUDIO
    TITLE "0:"
    INDEX 01 00:53:15
  TRACK 40 AUDIO
    TITLE "4:cjc157_5812"
    INDEX 01 00:53:60
  TRACK 41 AUDIO
    TITLE "0:"
    INDEX 01 00:55:10
  TRACK 42 AUDIO
    TITLE "5:cjc157_5813"
    INDEX 01 00:55:51
  TRACK 43 AUDIO
    TITLE "0:"
    INDEX 01 00:58:46
  TRACK 44 AUDIO
    TITLE "3:cjc157_5814"
    INDEX 01 00:59:20
  TRACK 45 AUDIO
    TITLE "0:"
    INDEX 01 01:00:53
  TRACK 46 AUDIO
    TITLE "4:cjc157_5815"
    INDEX 01 01:01:25
  TRACK 47 AUDIO
    TITLE "0:"
    INDEX 01 01:02:57
  TRACK 48 AUDIO
    TITLE "5:cjc157_5816"
    INDEX 01 01:03:24
  TRACK 49 AUDIO
    TITLE "0:"
    INDEX 01 01:06:14
  TRACK 50 AUDIO
    TITLE "5:cjc157_5817"
    INDEX 01 01:06:59
  TRACK 51 AUDIO
    TITLE "0:"
    INDEX 01 01:10:30
  TRACK 52 AUDIO
    TITLE "3:cjc157_5818"
    INDEX 01 01:10:73
  TRACK 53 AUDIO
    TITLE "0:"
    INDEX 01 01:12:32
  TRACK 54 AUDIO
    TITLE "4:cjc157_5819"
    INDEX 01 01:13:02
  TRACK 55 AUDIO
    TITLE "0:"
    INDEX 01 01:14:45
  TRACK 56 AUDIO
    TITLE "5:cjc157_5820"
    INDEX 01 01:15:25
  TRACK 57 AUDIO
    TITLE "0:"
    INDEX 01 01:18:54
  TRACK 58 AUDIO
    TITLE "3:cjc157_5821"
    INDEX 01 01:19:27
  TRACK 59 AUDIO
    TITLE "0:"
    INDEX 01 01:20:48
  TRACK 60 AUDIO
    TITLE "4:cjc157_5822"
    INDEX 01 01:21:21
  TRACK 61 AUDIO
    TITLE "0:"
    INDEX 01 01:23:03
  TRACK 62 AUDIO
    TITLE "5:cjc157_5823"
    INDEX 01 01:23:48
  TRACK 63 AUDIO
    TITLE "0:"
    INDEX 01 01:26:32
  TRACK 64 AUDIO
    TITLE "3:cjc157_5824"
    INDEX 01 01:27:06
  TRACK 65 AUDIO
    TITLE "0:"
    INDEX 01 01:28:29
  TRACK 66 AUDIO
    TITLE "4:cjc157_5825"
    INDEX 01 01:29:01
  TRACK 67 AUDIO
    TITLE "0:"
    INDEX 01 01:30:30
  TRACK 68 AUDIO
    TITLE "5:cjc157_5826"
    INDEX 01 01:31:14
  TRACK 69 AUDIO
    TITLE "0:"
    INDEX 01 01:33:46
  TRACK 70 AUDIO
    TITLE "5:cjc157_5827"
    INDEX 01 01:34:18
  TRACK 71 AUDIO
    TITLE "0:"
    INDEX 01 01:36:56
